<?xml version="1.0" encoding="utf-8"?>
<!-- Generator: Adobe Illustrator 25.2.0, SVG Export Plug-In . SVG Version: 6.00 Build 0)  -->
<svg version="1.1" id="Ebene_1" xmlns="http://www.w3.org/2000/svg" xmlns:xlink="http://www.w3.org/1999/xlink" x="0px" y="0px"
	 width="24px" height="20px" viewBox="0 0 24 20" style="enable-background:new 0 0 24 20;" xml:space="preserve">
<style type="text/css">
	.st0{fill:#2B2E34;}
</style>
<path class="st0" d="M19.7,15.8c0,0-0.1-0.1-0.1-0.1L13.9,10l5.7-5.7c0,0,0,0,0,0l1.1-1.1l-1.9-1.9l-1,1c0,0,0,0-0.1,0
	c0,0-0.1,0.1-0.1,0.1L12,8.1L6.3,2.4c0,0,0,0,0,0L5.2,1.3L3.3,3.2l1,1c0,0,0,0,0,0.1c0,0,0.1,0,0.1,0.1l5.7,5.7l-6.8,6.8l1.9,1.9
	l1-1c0,0,0,0,0.1,0c0,0,0-0.1,0.1-0.1l5.7-5.7l5.7,5.7c0,0,0,0,0,0l1.1,1.1l1.9-1.9L19.7,15.8C19.7,15.8,19.7,15.8,19.7,15.8z"/>
</svg>
